<?xml version="1.0" encoding="utf-8"?>
<!-- Generator: Adobe Illustrator 21.1.0, SVG Export Plug-In . SVG Version: 6.00 Build 0)  -->
<svg version="1.1" id="Слой_1" xmlns="http://www.w3.org/2000/svg" xmlns:xlink="http://www.w3.org/1999/xlink" x="0px" y="0px"
	 viewBox="0 0 394 116.8" style="enable-background:new 0 0 394 116.8;" xml:space="preserve">
<style type="text/css">
	.st0{fill:#434242;}
	.st1{fill:#2DB6C0;}
</style>
<g id="Слой_x0020_1">
	<g id="_160428936">
		<path class="st0" d="M244.8,37.3c0,3.2-0.4,5.8-1.4,7.8c-0.9,1.9-2.2,3.4-4,4.3c-1.8,0.9-4.3,1.4-7.6,1.4h-8.2V23.9h8.1
			c3.2,0,5.7,0.4,7.6,1.4c1.9,0.9,3.2,2.4,4.2,4.3C244.3,31.5,244.8,34.1,244.8,37.3L244.8,37.3z M239.1,37.2c0-2.4-0.2-4.1-0.7-5.3
			c-0.4-1.2-1.2-1.9-2.4-2.4c-1.1-0.5-2.7-0.7-4.9-0.7H229v16.8h2.1c2.2,0,3.8-0.3,4.9-0.7c1.1-0.5,1.9-1.3,2.4-2.5
			C238.8,41.3,239.1,39.5,239.1,37.2L239.1,37.2z M263.8,50.7h-13v-4.2h3.7V27.9h-3.7v-4.2h13v4.2h-3.7v18.5h3.7V50.7z M288.9,31.3
			c-0.7-1.1-1.5-1.9-2.5-2.4s-2.2-0.8-3.7-0.8c-2.4,0-4.2,0.8-5.3,2.4s-1.7,3.9-1.7,7.1c0,3.1,0.5,5.3,1.7,6.8
			c1.1,1.4,2.8,2.2,5.3,2.2c1.8,0,3.5-0.4,5-1.2v-4.2h-5.3v-4.8H293v11.9c-1.2,0.9-2.8,1.7-4.6,2.2c-1.9,0.6-3.7,0.9-5.7,0.9
			c-4.2,0-7.3-1.1-9.5-3.3c-2.2-2.2-3.2-5.7-3.2-10.5c0-9.5,4.2-14.3,12.5-14.3c2.4,0,4.5,0.4,6.4,1.2c1.8,0.8,3.2,2,4.2,3.6
			L288.9,31.3L288.9,31.3z M313,50.7h-13v-4.2h3.7V27.9h-3.7v-4.2h13v4.2h-3.7v18.5h3.7V50.7z M331.8,28.8v21.9h-5.5V28.8h-8.3v-5
			h22v5H331.8z M340.5,50.7l8.9-26.9h7.1l8.9,26.9h-5.6l-1.8-5.5h-10.4l-1.7,5.5H340.5z M349.3,40.4h7.3l-3.6-11.2L349.3,40.4z
			 M371.3,50.7V23.8h5.5v21.9h11.3v5H371.3z M163.4,91.8l8.9-26.9h7.1l8.9,26.9h-5.6l-1.8-5.5h-10.4l-1.7,5.5H163.4z M172.1,81.5
			h7.3l-3.6-11.2L172.1,81.5z M211.6,72.4c-0.7-1.1-1.5-1.9-2.5-2.4s-2.2-0.8-3.7-0.8c-2.4,0-4.2,0.8-5.3,2.4
			c-1.1,1.6-1.7,3.9-1.7,7.1c0,3.1,0.5,5.3,1.7,6.8c1.1,1.4,2.8,2.2,5.3,2.2c1.8,0,3.5-0.4,5-1.2v-4.2H205v-4.8h10.7v11.9
			c-1.2,0.9-2.8,1.7-4.6,2.2c-1.9,0.6-3.7,0.9-5.7,0.9c-4.2,0-7.3-1.1-9.5-3.3c-2.2-2.2-3.2-5.7-3.2-10.5c0-9.5,4.2-14.3,12.5-14.3
			c2.4,0,4.5,0.4,6.4,1.2c1.8,0.8,3.2,2,4.2,3.6L211.6,72.4L211.6,72.4z M223.7,91.8V64.9h17.5v4.8h-12v5.8h10.1v4.8h-10.1v6.5h12v5
			H223.7z M263.6,91.8l-9.8-19.2v19.2h-5.4V64.9h7.1l9.1,18.1V64.9h5.4v26.9H263.6z M300.2,87.3c-1.2,1.7-2.6,3-4.2,3.8
			c-1.7,0.8-3.7,1.2-6.2,1.2c-8.4,0-12.5-4.7-12.5-14c0-4.8,1.1-8.4,3.2-10.6c2.1-2.3,5.2-3.5,9.1-3.5c2.7,0,4.8,0.4,6.4,1.4
			c1.7,0.9,3,2,3.8,3.5l-4.2,3.3c-0.6-0.9-1.2-1.6-1.7-2c-0.5-0.4-1.1-0.7-1.8-0.9c-0.6-0.2-1.4-0.3-2.4-0.3c-2.2,0-3.9,0.7-5,2.1
			c-1.2,1.4-1.7,3.7-1.7,7.1c0,3.1,0.5,5.4,1.7,6.9c1.1,1.5,2.8,2.3,5.2,2.3c1.6,0,2.8-0.3,3.7-0.9c0.9-0.6,1.7-1.4,2.4-2.4
			L300.2,87.3L300.2,87.3z M317.1,81.5v10.3h-5.5V81.6l-8.4-16.8h6l5.3,11.2l5.4-11.2h5.8L317.1,81.5z"/>
		<path class="st1" d="M171.3,28.9v5.8h9.9v4.8h-9.9v11.2h-5.5V23.8h17.3v5H171.3z M205.3,41.9c0,3-0.9,5.3-2.8,6.9
			c-1.9,1.7-4.6,2.5-8.1,2.5c-4.4,0-7.6-1.5-9.5-4.5l4.4-3.1c1,1.7,2.7,2.7,5,2.7c3.6,0,5.4-1.5,5.4-4.6c0-1.3-0.5-2.3-1.4-3.1
			c-0.9-0.7-2.2-1.1-3.9-1.1c-1.8,0-3.2,0.5-4,1.4h-3.8l1.6-15.2h15.8v5h-11.4l-0.6,4.8c1.2-0.5,2.6-0.8,4.1-0.8
			c2.9,0,5.2,0.8,6.8,2.3c1.7,1.5,2.5,3.8,2.5,6.8L205.3,41.9z"/>
	</g>
	<path class="st1" d="M6.5,116.8h103.7c3.6,0,6.6-3,6.6-6.6V6.6c0-3.6-3-6.6-6.6-6.6H42.8C19.3,0,0,19.3,0,42.8v67.3
		C0,113.8,3,116.7,6.5,116.8L6.5,116.8z M31.2,69h43.1c0.7,0,1.3,1.7,1.3,3.7s-0.6,3.7-1.3,3.7H31.2v15.2l0,0c0,0.7-1.7,1.3-3.7,1.3
		s-3.7-0.6-3.7-1.3V52.4l0,0c0-0.7,0-1.4,0-2.1v-4c0-6,3.4-12.3,8.4-16.6c3.7-3.2,9.8-6,14.5-6h45.1c0.7,0,1.3,1.7,1.3,3.7
		s-0.6,3.7-1.3,3.7H49.5c-9.6,0-18.1,7.8-18.3,18l0,0c0,0.1,0,0.2,0,0.4v1.2c0,0.3,0,0.6,0,0.9v2.5V69L31.2,69z M91.4,47
		c0.7,0,1.3-1.7,1.3-3.7s-0.6-3.7-1.3-3.7H65.1h-0.4h-0.4h-0.3H52.6c-7.7,0-13.1,6.3-13.2,13.2c0.1,3.2,0.1,5.8,0.1,8.9v0.1h3.9h3.5
		h0.9c0.5,0,1,0,1.5,0c1,0,2.2,0,3.6,0c0.8,0,1.7,0,4.6,0l15.8,0.1c4.9,0,10.7,5,10.7,9.9v2.1c0,4.8-4.9,10.3-11.2,10.3l-33.3,0.1
		c-0.7,0-1.3,1.7-1.3,3.7s0.6,3.7,1.3,3.7h33c9.9,0,19.2-7.8,19.2-18.4v-0.2c0-11.2-8.4-18.6-20.2-18.6H59.1h-0.8h-0.8l0,0l0,0H47.2
		c-0.1-1.2-0.1-2.4,0.3-3.4c0.6-1.9,1.9-3,3.4-3.6c1.2-0.5,1.8-0.4,3.1-0.4h6.4h0.4c0.4,0,0.7,0,1,0h2.2h0.2h0.3h0.3h0.3h0.4h3h23.3
		L91.4,47z"/>
</g>
</svg>
